<svg id="Component_5_1" data-name="Component 5 – 1" xmlns="http://www.w3.org/2000/svg" width="51.822" height="52.778" viewBox="0 0 51.822 52.778">
    <path id="Path_2282" data-name="Path 2282" d="M66.675,181.553l-.076-.017q-.045-2.623-.041-5.249a3.243,3.243,0,0,1,2.009,1.179.606.606,0,0,0,.511.274.677.677,0,0,0,.592-.343.527.527,0,0,0-.049-.564,4.686,4.686,0,0,0-3.062-1.754l0-1.309a.577.577,0,0,0-.162-.42.634.634,0,0,0-.45-.178.594.594,0,0,0-.619.6v1.189l-.169,0a7.691,7.691,0,0,0-1.192.091l0-1.181a.571.571,0,0,0-.164-.419.633.633,0,0,0-.45-.178.589.589,0,0,0-.616.6l0,1.478a4.031,4.031,0,0,0-2.873,2.923c-.339,1.693,1.037,3.049,2.552,3.642a3.224,3.224,0,0,0,.308.1l-.01,4.955a3.407,3.407,0,0,1-2.214-2.306.613.613,0,0,0-.594-.42.651.651,0,0,0-.53.256.541.541,0,0,0-.057.5,4.436,4.436,0,0,0,3.393,3.286l-.006,2.983a.574.574,0,0,0,.164.419.633.633,0,0,0,.45.178.589.589,0,0,0,.616-.6l.005-2.846.028.025c.118,0,.239.005.362.005a10.343,10.343,0,0,0,1.235-.072l.015.389c.032.8.062,1.6.1,2.407a.619.619,0,0,0,.64.591.608.608,0,0,0,.444-.178.557.557,0,0,0,.145-.423c-.046-.953-.083-1.906-.12-2.859l-.006-.166a3.651,3.651,0,0,0,2.908-2.675C70.112,183.482,68.479,182.072,66.675,181.553Zm2.016,3.493c-.073.875-1.306,1.456-1.962,1.7q-.068-1.975-.11-3.952a.546.546,0,0,1,.049.025C68.068,183.6,68.749,184.349,68.691,185.045Zm-3.446-3.767c-.368-.053-.736-.108-1.105-.191l-.181-.042.008-4.755a6.407,6.407,0,0,1,1.327-.137h.036q0,2.571.038,5.142Zm-1.29.961.4.046c.346.039.692.078,1.028.134q.046,2.339.131,4.678a4.982,4.982,0,0,1-.736.1c-.1,0-.2.006-.294.006-.184,0-.364-.007-.54-.018Zm-1.218-5.533-.008,3.975c-.936-.356-1.495-.811-1.66-1.354a1.974,1.974,0,0,1,.5-1.713A3.119,3.119,0,0,1,62.737,176.706Z" transform="translate(-46.651 -146.375)" fill="#717171"/>
    <path id="Path_2283" data-name="Path 2283" d="M61.377,195.08a19.173,19.173,0,0,0,4.548.584h0a12.538,12.538,0,0,0,10.55-5.268c3.423-4.594,3.258-11.281-.409-16.64a13.943,13.943,0,0,0-11.42-5.873,13.523,13.523,0,0,0-3,.334c-6.181,1.413-11,7.867-10.742,14.4C51.615,188.427,56.116,193.786,61.377,195.08Zm5.293-.5c-2.344-.022-6.7-.44-9.577-3a15.625,15.625,0,0,1-4.957-8.991c-.261-6.647,5.1-12.931,11.481-13.449.357-.03.711-.043,1.06-.043,6.2,0,11.445,4.538,12.751,11.035a12.994,12.994,0,0,1-2.721,10.518,10.234,10.234,0,0,1-8.036,3.927Z" transform="translate(-46.856 -146.504)" fill="#717171"/>
    <path id="Path_2284" data-name="Path 2284" d="M98.692,190.238c-.033-.512-.066-1.014-.074-1.491-.05-2.785-.042-5.245.025-7.519.05-1.725-.013-3.475-.075-5.168-.044-1.2-.087-2.408-.1-3.566a.6.6,0,0,0,.015-.528v-.429c0-.341,0-.682.013-1.022.157-3.685.171-7.67.045-12.542-.015-.6.019-1.31.056-2.063.128-2.605.288-5.847-1.488-7.462-1.39-1.262-3.644-1.409-5.22-1.409-.923,0-1.869.059-2.7.112-.644.04-1.249.078-1.781.085q-.9.014-1.793.013c-1.854,0-3.707-.038-5.56-.076s-3.708-.075-5.563-.075c-.425,0-1.39.007-1.39.007-.389,0-.851-.018-1.357-.039-.616-.025-1.3-.051-2-.051-2.331,0-5.5.285-6.076,2.755a16.051,16.051,0,0,0-.158,4.252c.03.631.059,1.247.056,1.817l-.006.964c-.016,2.481-.033,5.047.1,7.571-6.257.549-12.013,4.067-14.684,8.984A17.282,17.282,0,0,0,51.5,193.1a19.419,19.419,0,0,0,14.607,6.69,18.564,18.564,0,0,0,3.389-.312,16.309,16.309,0,0,0,7.583-3.652.642.642,0,0,0,.189.03c1.934.027,3.867.079,5.8.131,2.656.072,5.4.145,8.108.149.436,0,.948.04,1.495.083.647.05,1.318.1,1.987.1h0c1.45,0,3.433-.227,3.914-2.183A13.178,13.178,0,0,0,98.692,190.238Zm-4.838,4.817c-.45,0-.912-.037-1.369-.074s-.89-.072-1.311-.073c-2.715,0-5.472-.076-8.138-.147-1.57-.042-3.14-.084-4.712-.112a16.292,16.292,0,0,0,2.8-3.994l.01.015q.7-.017,1.391-.016c1.946,0,3.923.09,5.835.176s3.89.177,5.838.177c1.171,0,2.236-.032,3.25-.1l.011.533c.038,2.164-.77,3.224-2.7,3.545A5.574,5.574,0,0,1,93.854,195.056Zm-12.188-5.617a15.174,15.174,0,0,0,1.027-4.284c3.643-.013,7.342-.123,10.92-.227q1.883-.055,3.766-.107l-.023.029c0,1.573.031,3.143.066,4.714l0,.121c-1.013.065-2.077.1-3.248.1-1.938,0-3.91-.089-5.815-.174s-3.884-.174-5.828-.174Q82.1,189.432,81.667,189.438Zm.651-9.979c1.1.055,2.276.083,3.583.083,1.868,0,3.774-.057,5.617-.111s3.739-.111,5.6-.111h.273q-.014,2.136-.023,4.27-1.878.049-3.753.107c-3.562.1-7.244.212-10.869.226l0-.114c.005-.115.009-.228.006-.344A24.9,24.9,0,0,0,82.317,179.459Zm15.077-1.367H97.12c-1.865,0-3.771.056-5.615.112s-3.755.112-5.625.112c-1.4,0-2.656-.032-3.829-.1a20.265,20.265,0,0,0-1.95-5.008q1.208.02,2.415.018h0c3.929,0,7.922-.138,11.781-.273l3.128-.107Q97.414,175.472,97.394,178.093Zm.034-6.472-3.3.114c-3.818.133-7.767.273-11.653.273q-1.526,0-3.052-.031h-.006a.333.333,0,0,0-.071.008,17.2,17.2,0,0,0-4.9-4.866q1.986.008,3.971.023c2.119.012,4.238.027,6.357.027h.919c1.583,0,3.2-.059,4.764-.115,1.606-.056,3.268-.115,4.9-.115q1.04,0,2.077.036Q97.439,169.3,97.428,171.621Zm-.007-5.878c-.688-.025-1.379-.035-2.071-.035-1.631,0-3.294.057-4.9.114-1.561.055-3.175.112-4.754.114h-.831c-2.107,0-4.215-.014-6.322-.029-2.037-.014-4.073-.028-6.111-.029-.059,0-.108.014-.1.039a19.7,19.7,0,0,0-3.35-1.242,17.132,17.132,0,0,0-3.658-.384c-.145,0-.291,0-.437.005-.052-1.035-.084-2.125-.1-3.327,1.738-.161,3.593-.237,5.827-.237,1.835,0,3.706.052,5.516.1s3.659.1,5.47.1l1.06,0c1.762,0,3.574.1,5.325.2s3.587.2,5.373.2a33.987,33.987,0,0,0,4.013-.214l.006.336c.024,1.42.031,2.84.039,4.259Zm-4.218-5.6c-1.821,0-3.686-.111-5.489-.218s-3.653-.216-5.46-.216c-.242,0-.482,0-.722.006-.436.007-.875.01-1.312.01-1.687,0-3.415-.05-5.085-.1s-3.411-.1-5.112-.1c-2,0-3.666.068-5.236.212q0-1.46.008-2.921c0-.5-.027-1.075-.061-1.67,1.089-.04,2.272-.06,3.615-.06,1.315,0,2.63.018,3.944.037s2.63.036,3.944.036h0c2.238,0,4.065-.054,5.753-.171.956-.067,1.976-.1,3.122-.1,1.43,0,2.887.05,4.295.1s2.864.1,4.294.1c1.314,0,2.479-.043,3.558-.131.018,1.107.094,4.943.094,4.943A32.335,32.335,0,0,1,93.2,160.144Zm.518-6.283c-1.427,0-2.881-.051-4.287-.1s-2.865-.1-4.3-.1c-1.159,0-2.193.034-3.161.1-1.681.118-3.5.173-5.735.173-1.324,0-2.649-.018-3.974-.038s-2.654-.037-3.98-.037c-1.343,0-2.529.019-3.62.06a11.786,11.786,0,0,1,.177-3.292c.533-2.071,1.971-2.1,3.637-2.136.293-.005.59-.012.887-.03,1.174-.072,2.433-.114,3.849-.129l.932-.005c1.937,0,3.852.059,5.634.124.739.027,1.48.038,2.222.038,1.242,0,2.485-.03,3.73-.058s2.487-.057,3.728-.057c1.6,0,2.934.048,4.185.152,3.181.263,3.522,2.5,3.587,5.2C96.171,153.819,95.019,153.861,93.721,153.861Zm-25.061,12a17.5,17.5,0,0,1,12.49,20.751A15.375,15.375,0,0,1,65.97,198.58a17.394,17.394,0,0,1-4.883-.709c-7.2-2.1-14.121-9.593-12.759-18.032a15.349,15.349,0,0,1,6.82-11.045,17.085,17.085,0,0,1,9.916-3.328A16.864,16.864,0,0,1,68.661,165.864Z" transform="translate(-46.953 -147.016)" fill="#717171"/>
    <path id="Path_2285" data-name="Path 2285" d="M57.412,174.3a.623.623,0,0,0-.4.149,9.51,9.51,0,0,0-3.381,6.07.639.639,0,0,0,.153.515.723.723,0,0,0,.528.245.5.5,0,0,0,.51-.46,8.477,8.477,0,0,1,3.045-5.487.512.512,0,0,0,.177-.591A.686.686,0,0,0,57.412,174.3Z" transform="translate(-46.79 -146.347)" fill="#717171"/>
    <path id="Path_2286" data-name="Path 2286" d="M58.853,173.138a.573.573,0,0,0-.449.2.642.642,0,0,0-.149.419.587.587,0,0,0,.6.614.57.57,0,0,0,.449-.2.638.638,0,0,0,.149-.419A.587.587,0,0,0,58.853,173.138Z" transform="translate(-46.676 -146.375)" fill="#717171"/>
    <path id="Path_2287" data-name="Path 2287" d="M67.781,149.426h-.014a4.023,4.023,0,0,0-2.208.935,2.825,2.825,0,0,0-.678,2.3.64.64,0,0,0,1.081.414.558.558,0,0,0,.149-.424c-.023-.571-.047-1.161.434-1.517a3.382,3.382,0,0,1,1.522-.519.5.5,0,0,0,.458-.553A.7.7,0,0,0,67.781,149.426Z" transform="translate(-46.514 -146.957)" fill="#717171"/>
    <path id="Path_2288" data-name="Path 2288" d="M69.691,148.83a.573.573,0,0,0-.449.2.638.638,0,0,0-.149.419.587.587,0,0,0,.6.615.572.572,0,0,0,.449-.2.638.638,0,0,0,.149-.419A.587.587,0,0,0,69.691,148.83Z" transform="translate(-46.41 -146.971)" fill="#717171"/>
</svg>
