<svg xmlns="http://www.w3.org/2000/svg" width="39.197" height="54.089" viewBox="0 0 39.197 54.089">
    <g id="Group_7" data-name="Group 7" transform="translate(-553.862 -631.915)">
        <path id="Path_3686" data-name="Path 3686" d="M591.749,673.685c.716.625,1.785-.367,1.077-1.006q-.46-.455-.927-.905c-.277-.288-.549-.581-.821-.875a.825.825,0,0,0,.014-1.2c-.218-.208-.429-.422-.635-.641a.534.534,0,0,0-.1-.191c-.547-.683-1.119-1.345-1.7-2-.736-.987-1.425-2.008-2.126-2.989a42.358,42.358,0,0,0-4.514-5.684,29.2,29.2,0,0,0-2.66-2.292.612.612,0,0,0-.151-.384c-.191-.228-.395-.445-.607-.654-1.54-2.143-3.278-4.313-5.8-5.126q-.229-.215-.457-.43c.375-.368-.214-.922-.626-.6l-.145-.138-.007-.006a.208.208,0,0,0-.323-.258l-.073.068a.7.7,0,0,0-.112,0,.324.324,0,0,0-.482-.115,19.624,19.624,0,0,0-4.245,4.465c-.025.027-.05.051-.074.079a33.449,33.449,0,0,0-3.894,5.791c0-.757.027-1.515.067-2.273.01-.19.024-.379.035-.569a.522.522,0,0,0,.049-.8c.02-.313.039-.626.053-.939a5.08,5.08,0,0,0-.133-2.175.277.277,0,0,0-.271-.178,3.42,3.42,0,0,0-2.284.777c-.441.274-.874.559-1.321.825-.127.076-.257.147-.388.216a.348.348,0,0,0-.39-.157c-.8.245-.81,1.782-.884,2.416a29.753,29.753,0,0,0-.1,4.637,33.6,33.6,0,0,0,.522,4.72c.093.507.187,1.044.329,1.567-.555.951-1.086,1.912-1.583,2.889a.189.189,0,0,0-.233.127c-.031.169-.056.338-.084.508a34.542,34.542,0,0,0-1.839,4.487c-.271.835.784,1.3,1.4.935-.04,2.3.058,4.605.133,6.887.073,2.183.136,4.367.17,6.552a10.11,10.11,0,0,0,.243,3.14c.173.454.368.882.961.778a.658.658,0,0,0,.473-.442c.637-1.7.283-3.894.217-5.667-.071-1.937-.164-3.875-.257-5.812-.116-2.458-.233-4.935-.485-7.393a10.539,10.539,0,0,0,.587-1.181c.111-.255.223-.519.332-.787,2.043.074,4.137-.124,6.154-.167,2.7-.057,5.393-.172,8.09-.243,5.5-.146,11.041-.032,16.537-.311.249,3.436,1.029,6.851,1.542,10.257a87.552,87.552,0,0,1,1.01,11.048.706.706,0,0,0-.57-.25c-3.608.012-7.222.2-10.824.505a6.3,6.3,0,0,0-.37-1.41,17.7,17.7,0,0,1-.433-2.995c-.158-1.91-.152-3.828-.188-5.743a.468.468,0,0,0-.48-.448c-1.351.036-2.692.225-4.034.358-1.107.11-2.809.414-3.848-.085-.208-.1-.46.164-.261.317.063.048.128.092.194.133a.388.388,0,0,0-.366.3,28.493,28.493,0,0,0,.029,5.636c.052.932.128,1.862.19,2.794.046.694-.011,1.438.1,2.135-2.131.249-4.264.485-6.406.633a53.138,53.138,0,0,1-7.732-.374c-.119-.009-.13.134-.054.188,1.919,1.376,4.826,1.38,7.137,1.406a65.571,65.571,0,0,0,8.355-.645,165.178,165.178,0,0,1,18.987-1.292.686.686,0,0,0,.666-.41c.284.465,1.2.368,1.21-.3a68.687,68.687,0,0,0-.9-11.135,60.7,60.7,0,0,0-2.211-10.1C590.029,672.251,590.908,672.953,591.749,673.685Zm-13.9,14.683a20.133,20.133,0,0,0,.46,2.994,2.985,2.985,0,0,0,.482,1.238l-.42.038a14.819,14.819,0,0,0-.447-1.739c-.234-.9-.48-1.8-.7-2.7a36.717,36.717,0,0,1-.829-5.3c.425-.028.849-.05,1.274-.058C577.64,684.681,577.688,686.527,577.848,688.368Zm-.572,4.168c-1.555-3.036-1.8-6.274-2.078-9.557.321-.024.643-.049.964-.071a14.041,14.041,0,0,0,.169,4.794,30.088,30.088,0,0,0,.69,3.072,17.85,17.85,0,0,0,.544,1.938l-.247.023A.371.371,0,0,0,577.276,692.536ZM574.863,683a15.85,15.85,0,0,0,1.644,9.81q-.935.093-1.866.194c-.089-.521-.272-1.039-.392-1.542a23.488,23.488,0,0,1-.471-2.94,46.061,46.061,0,0,0-.425-5.432C573.858,683.075,574.36,683.042,574.863,683ZM571.4,693.375a13.622,13.622,0,0,0-.065-1.989c-.048-.934-.129-1.864-.235-2.794-.217-1.905-.337-3.822-.627-5.717a.315.315,0,0,0-.029-.089,3.325,3.325,0,0,0,.965.277,5.467,5.467,0,0,1,.386,1.536,24.421,24.421,0,0,1,.284,2.923c.128,1.733.146,3.472.146,5.209a.4.4,0,0,0,.791,0c0-1.881-.012-3.771-.181-5.646a16.98,16.98,0,0,0-.488-2.8,2.181,2.181,0,0,0-.655-1.188,11.713,11.713,0,0,0,1.418.009,20.029,20.029,0,0,0-.091,5.765,25.87,25.87,0,0,0,.37,2.821,7.716,7.716,0,0,0,.355,1.416q-.992.11-1.983.227ZM559.8,653.5a20.756,20.756,0,0,0,1.934-.893c-.031.353-.014.713-.024,1.074-.011.433-.017.866-.022,1.3a12.137,12.137,0,0,0-2.2,1.055c-.457.262-.907.531-1.367.788a3.315,3.315,0,0,0-.443.3c.015-.285.03-.571.053-.855a11.332,11.332,0,0,1,.235-1.606,3.749,3.749,0,0,1,.146-.437,1.762,1.762,0,0,0,.244-.08C558.845,653.946,559.321,653.726,559.8,653.5Zm-1.779,11.515c-.192-1.461-.279-2.941-.345-4.411q-.063-1.39-.026-2.785a.791.791,0,0,0,.353-.046c.477-.2.943-.423,1.407-.649.748-.366,1.5-.7,2.272-1.021,0,1.153.028,2.3.13,3.451-.673,1.167-1.323,2.344-1.966,3.526-.582.919-1.156,1.839-1.713,2.769C558.089,665.561,558.054,665.28,558.018,665.01Zm14.291,4.838c-2.7.111-5.4.224-8.087.464-1.929.173-3.978.244-5.94.55a30.536,30.536,0,0,0,1.933-3.512c1.211-2.251,2.365-4.529,3.569-6.784.934-1.749,1.918-3.479,3.013-5.145a46.529,46.529,0,0,1,4.192-4.835,12.885,12.885,0,0,0,2.1,1.805,17.116,17.116,0,0,0,1.33,1.672c1.651,1.864,3.706,3.353,5.494,5.1,2.749,2.68,4.4,6.3,6.91,9.161a2.273,2.273,0,0,0,.562,1.279C582.377,669.413,577.3,669.642,572.309,669.849Z" transform="translate(0 -9.372)" fill="#717171"/>
        <path id="Path_3687" data-name="Path 3687" d="M560.031,638.471c.794.081,1.419.622,2.207.767a2.267,2.267,0,0,1-1.626,1.461.119.119,0,1,0,.067.228,2.6,2.6,0,0,0,2-1.79c.042-.124-.069-.218-.189-.232a8.056,8.056,0,0,1-1.926-.794,29.788,29.788,0,0,1,4.229-2.806.282.282,0,0,0-.23-.511,3.769,3.769,0,0,1-1.613.06c.862-.731,1.383-1.655,2.2-2.476.254-.253-.151-.633-.406-.38-.956.949-1.5,2.1-2.712,2.827a.275.275,0,0,0,.149.513c.406.014.818.077,1.229.107a19.6,19.6,0,0,0-3.566,2.605C559.672,638.217,559.812,638.449,560.031,638.471Z" transform="translate(-3.398 0)" fill="#717171"/>
        <path id="Path_3688" data-name="Path 3688" d="M586.487,665.328c.032-.172.06-.345.078-.522.023-.213-.33-.245-.388-.05a18.351,18.351,0,0,1-3,5.184c-.912,1.271-2.428,3.128-2.173,4.755.061.39.67.406.854.1a4.329,4.329,0,0,0,.315-.642,34.3,34.3,0,0,0,4.874-.272c1.881-.208,3.8-.132,5.669-.367a.54.54,0,0,0,.517-.688.559.559,0,0,0,.429-.84A19.693,19.693,0,0,0,586.487,665.328Zm4.7,6.8c-.072-.11-.147-.221-.217-.339-.111-.186-.209-.38-.3-.575a.083.083,0,0,0,.09-.081v-1.01a15.6,15.6,0,0,1,1.582,2.031A9.184,9.184,0,0,0,591.19,672.126Zm-.609-2.2v1.1c-.146-.321-.28-.648-.417-.97a10.541,10.541,0,0,0-.565-1.145C589.932,669.242,590.261,669.58,590.581,669.925Zm-3.706,2.806c-1.528.252-3.026.586-4.524.939a11.208,11.208,0,0,1,.51-1.331,19.412,19.412,0,0,1,1.021-1.76,14.7,14.7,0,0,0,.435,2.33c.062.253.488.145.416-.107-.238-.833-.484-1.681-.65-2.536l.383-.595q.217-.338.426-.674a5.178,5.178,0,0,0,1.3,3.45.247.247,0,0,0,.395-.285,7.452,7.452,0,0,1-1.322-3.785,10.068,10.068,0,0,0,1.165-2.762c.6.727,1.261,1.4,1.931,2.069a.12.12,0,0,0,.022.074,14.345,14.345,0,0,1,1.365,2.994,12.1,12.1,0,0,0,.612,1.432c-.661.065-1.327.172-1.978.285a.217.217,0,0,0,.065-.316,15.159,15.159,0,0,1-1.99-5.644c-.018-.093-.187-.072-.176.023.232,2.032.467,4.132,1.7,5.877a.267.267,0,0,0,.146.1C587.7,672.588,587.28,672.664,586.875,672.731Z" transform="translate(-15.596 -18.819)" fill="#717171"/>
        <path id="Path_3689" data-name="Path 3689" d="M568.448,715.721a7.16,7.16,0,0,0,1.108,3.02c1.014,1.652,3.362,1.48,5.111,1.718.613.084,1.049-.4.778-.947-1.361-2.732.3-5.74.057-8.587a.661.661,0,0,0-.98-.526,5.634,5.634,0,0,1-4.886.305c-.69-.293-1.3.585-.747.954A19.616,19.616,0,0,0,568.448,715.721Zm1.272-3.733a6.993,6.993,0,0,0,4.5-.116c-.071,2.448-1.008,4.8-.372,7.193-.567-.067-1.133-.134-1.7-.223a1.919,1.919,0,0,1-1.43-.738C569.387,716.229,569.733,714.1,569.72,711.988Z" transform="translate(-8.381 -45.103)" fill="#717171"/>
        <path id="Path_3690" data-name="Path 3690" d="M615.484,716.771c-.167.353.015.936.54.879a59.05,59.05,0,0,1,6.147-.279.618.618,0,0,0,.635-.593c-.138-2.038-.023-4.38-1.1-6.227-1.172-2.019-3.844-1.7-5.815-1.11a.457.457,0,1,0,.259.876c.217-.052.443-.1.672-.15a4.218,4.218,0,0,0-.683,2.254C615.953,713.849,616.118,715.424,615.484,716.771Zm1.722-6.675c1.457-.244,3.005-.184,3.656,1.29a13.137,13.137,0,0,1,.647,4.8,37.387,37.387,0,0,0-4.649.171C617.231,714.293,616.482,712.073,617.206,710.1Z" transform="translate(-35.416 -44.344)" fill="#717171"/>
    </g>
</svg>
