<svg xmlns="http://www.w3.org/2000/svg" width="44" height="44" viewBox="0 0 44 44">
    <g id="Group_10173" data-name="Group 10173" transform="translate(-141 -197)">
        <circle id="Ellipse_3" data-name="Ellipse 3" cx="22" cy="22" r="22" transform="translate(141 197)" fill="#fecf09"/>
        <path id="Icon_material-thumb-up" data-name="Icon material-thumb-up" d="M1.5,21.4H5.48V9.459H1.5ZM23.388,10.454a2,2,0,0,0-1.99-1.99H15.121l.945-4.547L16.1,3.6a1.5,1.5,0,0,0-.438-1.055L14.6,1.5,8.057,8.057a1.945,1.945,0,0,0-.587,1.4v9.949a2,2,0,0,0,1.99,1.99h8.954a1.976,1.976,0,0,0,1.831-1.214l3-7.014a1.966,1.966,0,0,0,.139-.726v-1.9l-.01-.01Z" transform="translate(150.5 207.5)" fill="#f7f9fc"/>
    </g>
</svg>
