<svg id="Component_6_1" data-name="Component 6 – 1" xmlns="http://www.w3.org/2000/svg" width="50.349" height="51.04" viewBox="0 0 50.349 51.04">
    <path id="Path_2409" data-name="Path 2409" d="M333.144,358.068c-.115,0-.227,0-.341.009-2.3.114-5.16.256-7.277,1.911a12.42,12.42,0,0,0-3.992,7.186,7.91,7.91,0,0,0,1.839,6.4,10.134,10.134,0,0,0,7.324,3.714l.329.005a10.732,10.732,0,0,0,10.747-9.229,8.276,8.276,0,0,0-2-6.7A8.885,8.885,0,0,0,333.144,358.068ZM331.1,376.1c-.131,0-.262,0-.395-.007a8.452,8.452,0,0,1-6.642-3.656,7.3,7.3,0,0,1-.929-6.568c.5-1.455,1.654-4.083,3.7-5.327,1.731-1.053,3.833-1.157,5.866-1.258,0,0,.333-.013.443-.013A7.221,7.221,0,0,1,339,362.4a7.788,7.788,0,0,1,1.182,6.967A9.306,9.306,0,0,1,331.1,376.1Z" transform="translate(-320.774 -326.845)" fill="#717171"/>
    <path id="Path_2410" data-name="Path 2410" d="M332.417,361.927l-.106,0c-3.859.207-6.175,2.1-6.7,5.461a4.822,4.822,0,0,0,1.191,3.9,6.093,6.093,0,0,0,4.486,2.117h.018a6.347,6.347,0,0,0,6.368-5.43,5.025,5.025,0,0,0-1.191-4.072A5.43,5.43,0,0,0,332.417,361.927Zm-.012,1.2a4.018,4.018,0,0,1,3.27,1.726,4.143,4.143,0,0,1,.609,3.714,4.878,4.878,0,0,1-4.986,3.552,4.748,4.748,0,0,1-3.752-1.834,3.717,3.717,0,0,1-.589-3.352c.72-2.438,2.424-3.647,5.361-3.805Z" transform="translate(-320.774 -326.845)" fill="#717171"/>
    <path id="Path_2411" data-name="Path 2411" d="M359.145,346.031c.264.024.525.035.782.035a7.9,7.9,0,0,0,7.771-6.4,6.245,6.245,0,0,0-1.281-5.313,6.723,6.723,0,0,0-5.181-2.622l-.133,0c-4.8.25-7.615,2.521-8.353,6.75a5.929,5.929,0,0,0,1.242,4.647A7.482,7.482,0,0,0,359.145,346.031Zm-4.967-8.3c.966-3.076,3.17-4.6,6.932-4.8h.12a5.135,5.135,0,0,1,4.317,2.344,5.679,5.679,0,0,1,.555,5.33,6.543,6.543,0,0,1-7.623,4.115,5.937,5.937,0,0,1-3.823-2.813A5.186,5.186,0,0,1,354.178,337.729Z" transform="translate(-320.774 -326.845)" fill="#717171"/>
    <path id="Path_2412" data-name="Path 2412" d="M360,343.23h.013a4.771,4.771,0,0,0,4.8-4.113,3.825,3.825,0,0,0-.916-3.087,4.147,4.147,0,0,0-3.153-1.49h0c-2.9.155-4.644,1.58-5.037,4.118a3.673,3.673,0,0,0,.906,2.974A4.607,4.607,0,0,0,360,343.23Zm.808-7.491a2.763,2.763,0,0,1,2.254,1.192,2.848,2.848,0,0,1,.417,2.562,3.4,3.4,0,0,1-3.474,2.475,3.293,3.293,0,0,1-2.6-1.272,2.556,2.556,0,0,1-.4-2.3c.51-1.723,1.667-2.54,3.749-2.653Z" transform="translate(-320.774 -326.845)" fill="#717171"/>
    <path id="Path_2413" data-name="Path 2413" d="M343.874,341.065a.621.621,0,0,0,.579-.419,17.121,17.121,0,0,1,5.295-7.258.494.494,0,0,0,.187-.4.729.729,0,0,0-.292-.542c-1.88-1.4-3.9-2.649-5.854-3.858-.881-.545-1.762-1.091-2.634-1.651a.549.549,0,0,0-.3-.091.586.586,0,0,0-.451.226.635.635,0,0,0-.134.534l.7,3.3a25.031,25.031,0,0,0-16.307,9.761,20.063,20.063,0,0,0-3.607,15.309.493.493,0,0,0,.476.442l.1.009a.632.632,0,0,0,.159-.021A66.843,66.843,0,0,1,332,354.4a.681.681,0,0,0,.5-.289.545.545,0,0,0,.065-.472c-2.132-6.908,2.246-14.676,9.568-17.021a29.506,29.506,0,0,0,1.164,4.03A.608.608,0,0,0,343.874,341.065Zm-12.627,12.227a69.313,69.313,0,0,0-9.105,1.794,18.8,18.8,0,0,1,3.79-14.131A23.787,23.787,0,0,1,341.7,332a.678.678,0,0,0,.48-.269.6.6,0,0,0,.086-.483l-.54-2.53,1.218.759c1.8,1.119,3.658,2.275,5.412,3.532a17.747,17.747,0,0,0-4.4,5.784,28.673,28.673,0,0,1-.808-3.1.594.594,0,0,0-.591-.445.562.562,0,0,0-.148.02C334.406,337.45,329.316,345.685,331.247,353.292Z" transform="translate(-320.774 -326.845)" fill="#717171"/>
    <path id="Path_2414" data-name="Path 2414" d="M370.57,347.563a.52.52,0,0,0-.238-.342.511.511,0,0,0-.317-.112.579.579,0,0,0-.189.033l-.407.134a55.984,55.984,0,0,1-8.75,2.4.486.486,0,0,0-.331.218.684.684,0,0,0-.1.517c1.676,7.567-3.6,14.781-9.451,17.777a30.86,30.86,0,0,0-1.448-3.974.5.5,0,0,0-.478-.3.662.662,0,0,0-.623.436,16.877,16.877,0,0,1-4.791,7.6.551.551,0,0,0-.175.458.652.652,0,0,0,.29.485,72.587,72.587,0,0,0,8.838,4.941.656.656,0,0,0,.279.062.638.638,0,0,0,.509-.244.561.561,0,0,0,.086-.5l-.928-3.276a24.906,24.906,0,0,0,15.6-10.771A20.041,20.041,0,0,0,370.57,347.563Zm-19.128,25.276a.537.537,0,0,0-.351.256.624.624,0,0,0-.075.484l.734,2.59a72.416,72.416,0,0,1-6.923-3.9,18.146,18.146,0,0,0,4.021-6.07,28.884,28.884,0,0,1,1,3.005.573.573,0,0,0,.573.431.748.748,0,0,0,.3-.066c7.445-3.408,12.067-11.491,10.787-18.837a57.519,57.519,0,0,0,8.034-2.228,18.807,18.807,0,0,1-2.85,14.341A23.935,23.935,0,0,1,351.442,372.839Z" transform="translate(-320.774 -326.845)" fill="#717171"/>
    <path id="Path_2415" data-name="Path 2415" d="M324.14,347.306a.53.53,0,0,0-.478.3c-.935,1.81-.787,3.713-.537,5.666a.655.655,0,0,0,.663.563.561.561,0,0,0,.425-.176.5.5,0,0,0,.111-.412c-.208-1.617-.444-3.449.38-5.044a.575.575,0,0,0-.015-.585A.659.659,0,0,0,324.14,347.306Z" transform="translate(-320.774 -326.845)" fill="#717171"/>
    <path id="Path_2416" data-name="Path 2416" d="M324.846,345.345a.559.559,0,0,0-.439.19.631.631,0,0,0-.144.409.573.573,0,0,0,.583.6.557.557,0,0,0,.438-.191.628.628,0,0,0,.145-.409A.573.573,0,0,0,324.846,345.345Z" transform="translate(-320.774 -326.845)" fill="#717171"/>
    <path id="Path_2417" data-name="Path 2417" d="M366.7,358.486a.577.577,0,0,0,.495-.275,13.392,13.392,0,0,0,1.715-5.629.625.625,0,0,0-.146-.5.7.7,0,0,0-.516-.238.483.483,0,0,0-.5.448,12.678,12.678,0,0,1-1.585,5.309.526.526,0,0,0-.035.558A.662.662,0,0,0,366.7,358.486Z" transform="translate(-320.774 -326.845)" fill="#717171"/>
    <path id="Path_2418" data-name="Path 2418" d="M368.111,351.3a.56.56,0,0,0,.439-.191.629.629,0,0,0,.144-.409.573.573,0,0,0-.583-.6.557.557,0,0,0-.438.191.63.63,0,0,0-.145.409A.573.573,0,0,0,368.111,351.3Z" transform="translate(-320.774 -326.845)" fill="#717171"/>
</svg>
