<svg id="Component_4_1" data-name="Component 4 – 1" xmlns="http://www.w3.org/2000/svg" width="50.395" height="50.118" viewBox="0 0 50.395 50.118">
    <path id="Path_2325" data-name="Path 2325" d="M458.373,172.174c.035-2.46-.149-4.39-2.791-4.967,0-.421.011-.853.021-1.29.06-2.5.121-5.088-1.413-6.686l-.08-.053.105-.052c.034-.581.036-1.148.038-1.715,0-.746.006-1.518.087-2.3a6.879,6.879,0,0,0-.462-3.841c-1-1.925-3.259-2.086-5.484-2.086l-1.15,0q-1.74-2.779-3.518-5.534c-.132-.2-.274-.466-.427-.746-.512-.942-1.151-2.112-2.041-2.363a1.313,1.313,0,0,0-.349-.048,2.822,2.822,0,0,0-1.414.565c-.112.07-.22.138-.327.2-1.092.627-2.177,1.266-3.262,1.905l-.476.28c-.065-.114-.131-.238-.2-.366-.591-1.085-1.4-2.57-2.55-2.587a3.658,3.658,0,0,0-1.893.848c-.193.133-.377.261-.552.363q-2.092,1.237-4.181,2.481c-2.818,1.679-5.629,3.372-8.373,5.06a.5.5,0,0,0-.149-.026l-.3,0c-.36,0-.733-.008-1.114-.017-.4-.008-.807-.018-1.216-.018-2,0-4.042.2-5.436,1.679a5.312,5.312,0,0,0-1.313,3.467,57.377,57.377,0,0,0-.028,8.455c.046,1.032.093,2.062.12,3.085.049,1.888.009,3.808-.03,5.666-.091,4.461-.188,9.074.946,13.551.746,2.951,1.476,4.047,4.318,4.723a26.158,26.158,0,0,0,6.085.582c.716,0,1.436-.012,2.159-.025l.139,0c.759-.014,1.52-.019,2.278-.019,2.586,0,5.214.066,7.754.131s5.171.131,7.76.131c1.86,0,3.532-.033,5.112-.1.445-.019.9-.03,1.36-.041,2.773-.064,5.642-.129,7.688-2.172,1.459-1.457,1.407-4.03,1.361-6.3-.016-.794-.031-1.546.016-2.216.1,0,.2.006.311.01.134.006.271.012.407.012a1.887,1.887,0,0,0,1.088-.268c1.406-.976,1.384-4.658,1.373-6.635C458.373,172.622,458.371,172.375,458.373,172.174ZM435.7,189.537c-1.919-.018-3.871-.08-5.758-.14-2.174-.07-4.42-.143-6.632-.147h-.11c-.634,0-1.265.009-1.893.019s-1.244.018-1.864.018a24.431,24.431,0,0,1-5.677-.54,4.123,4.123,0,0,1-2.938-2.248,2.347,2.347,0,0,0,.568.075.524.524,0,0,0,.532-.544.535.535,0,0,0-.537-.563,1.183,1.183,0,0,1-.823-.314.533.533,0,0,0-.289-.134c-.128-.465-.235-.952-.342-1.455a36.021,36.021,0,0,1-.726-6.649c-.035-1.6.029-3.231.09-4.805.065-1.7.135-3.459.078-5.2-.033-1.062-.087-2.133-.14-3.21-.047-.95-.1-1.9-.129-2.857.078.048.158.1.241.136a.571.571,0,0,0,.254.062.6.6,0,0,0,.565-.468.478.478,0,0,0-.273-.556c-.3-.147-.58-.309-.822-.42-.021-1-.019-1.852,0-2.646.806.8,2.237,1.2,4.261,1.2.257,0,.5-.006.73-.016,2.048-.083,3.75-.122,5.358-.122,1.77,0,3.393.048,4.963.146,1.378.086,2.866.128,4.549.128,1.8,0,3.629-.048,5.4-.094s3.6-.093,5.4-.093q1.046,0,2.091.024c1.962.047,3.69.121,5.281.227.3.019.607.034.924.049,1.729.08,3.689.171,5,1.23,1.691,1.365,1.579,4,1.48,6.319-.017.415-.034.821-.041,1.206l-.414,0c-1.109,0-2.244.055-3.342.108-.893.043-1.784.087-2.669.1-2,.035-3.588.062-4.985,1.744a7.968,7.968,0,0,0-1.663,6.4,4.614,4.614,0,0,0,2.51,3.307,13.964,13.964,0,0,0,6.249,1.035l.613,0,.87-.009v.041a.553.553,0,0,0,1.106,0v-.06l1.334-.022c-.088.923-.118,1.86-.148,2.768-.029.841-.057,1.713-.131,2.566-.261,3.012-2.36,3.8-5.431,4.059-2.908.244-6.116.359-10.093.359Q436.992,189.551,435.7,189.537ZM432.2,141.974c1.006,0,1.66,1.055,2.237,1.985l.035.056c-5.861,3.466-11.749,7.1-17.445,10.623l-.052.055c-1.216-.038-2.431-.084-3.648-.147a16.968,16.968,0,0,1-1.884-.206c4.2-2.581,7.922-4.849,11.384-6.928q3.031-1.821,6.07-3.624c.262-.155.565-.371.887-.6A6.586,6.586,0,0,1,431.907,142,1.591,1.591,0,0,1,432.2,141.974ZM450.743,153.2a2.637,2.637,0,0,0,.062.31,2.829,2.829,0,0,1,.058.291,5.68,5.68,0,0,1,.031.943.89.89,0,0,0-.1-.006.241.241,0,0,0-.118.022c-.208-.343-1.026-1.666-1.026-1.666A5.7,5.7,0,0,1,450.743,153.2Zm2.437,2.154c-.055.432-.113.879-.125,1.325-.01.382.01.76.032,1.138.008.163.018.326.024.489a5.475,5.475,0,0,0-.873-.4c0-.166.023-.366.044-.581.073-.744.162-1.663-.318-2.168a6.611,6.611,0,0,0-.018-1.573,2.024,2.024,0,0,0-.458-1.265,1.8,1.8,0,0,0-1.09-.3l-.125-.008q-.465-.032-.934-.032a.684.684,0,0,0-.343.05l-1.065-1.727c2.464.02,5.185.113,5.368,3.25A9.86,9.86,0,0,1,453.179,155.353Zm-26.136-.526c1.183-.632,2.531-1.367,3.83-2.143.466-.279.923-.57,1.381-.862.382-.244.765-.488,1.152-.724.2-.121.34-.216.45-.289.2-.131.267-.176.339-.176a1.029,1.029,0,0,1,.3.091l.48.174a9.941,9.941,0,0,0,3.24.8,5.3,5.3,0,0,0,2.311-.59,28.421,28.421,0,0,0,2.74,3.675l-2.15,0q-3.641,0-7.281.026c-2.234.014-4.469.027-6.7.027Zm-12.979.863c2.337.111,4.827.179,7.836.216q2.609.03,5.22.029c2.467,0,4.933-.016,7.4-.031l3.432-.02q2.071-.011,4.143-.013,1.911,0,3.819.017c1.248.012,2.494.03,3.741.061,1.476.037,1.51.4,1.483,1.647a28.866,28.866,0,0,0-5.831-.481c-.591-.01-1.171-.018-1.73-.039-1.928-.069-3.654-.1-5.276-.1q-1.235,0-2.471.029-1.48.033-2.956.032c-2.071,0-4.176-.042-6.21-.083s-4.135-.082-6.205-.082q-.931,0-1.862.012c-.591.008-1.286.071-2.021.138-.924.084-1.88.171-2.815.171a6.388,6.388,0,0,1-3.18-.634,2.547,2.547,0,0,1-1.214-1.428,7.4,7.4,0,0,0,3.451.55h.505C413.59,155.678,413.84,155.68,414.064,155.691Zm39.786,23.016h-.014c-.457.009-.97.035-1.517.062-.806.041-1.72.086-2.632.086-2.436,0-5.807-.3-6.942-2.855a5.285,5.285,0,0,1,.064-4.092,4.509,4.509,0,0,1,4.42-3.414c.763-.027,1.536-.065,2.312-.105,1.387-.069,2.821-.142,4.215-.142.515,0,1.027.009,1.518.03,2.42.542,2.13,3.745,1.94,5.865l-.043.5-.028.381c-.087,1.256-.217,3.154-1.471,3.649a1.878,1.878,0,0,1-.662.089c-.207,0-.422-.014-.624-.026C454.207,178.718,454.041,178.707,453.85,178.707Zm-13.415-37.018.015.089c1.176.049,2.4,2.26,3.21,3.723.21.378.393.707.541.941,1.641,2.574,3.328,5.284,5.158,8.278-.207.011-.41.025-.6.038-.338.024-.641.044-.927.044h-.007c-.7-.011-1.4-.013-2.1-.014l-.991.042-.094.017.042-.109-.366-.434a25.962,25.962,0,0,1-3.1-4.193.541.541,0,0,0-.479-.272.577.577,0,0,0-.278.07,5.891,5.891,0,0,1-2.759.775,3.634,3.634,0,0,1-2.868-1.332.532.532,0,0,0-.4-.168.5.5,0,0,0-.279.079,93.049,93.049,0,0,1-9.19,5.42c-.078.041-.141.094-.115.126l-.509,0c-1.481-.006-2.961-.013-4.443-.041l-.93-.024c5.944-3.661,11.479-7.014,16.91-10.244l2.309-1.37c.166-.1.388-.261.635-.442a4.4,4.4,0,0,1,1.613-.911v-.089Zm-28.3,8.9a10.563,10.563,0,0,1,2.747-.291c.343,0,.686.006,1.026.015l-1.709,1.046-.671.424a14.053,14.053,0,0,0-3.768.756A4.184,4.184,0,0,1,412.136,150.585Zm-2.232,2.959c.062-.151.358-.411,1.622-.555l-1.472.9C409.857,153.742,409.873,153.623,409.9,153.544Z" transform="translate(-407.982 -140.497)" fill="#717171"/>
    <path id="Path_2326" data-name="Path 2326" d="M451.517,172.945a.5.5,0,0,0-.214-.1.513.513,0,0,0-.169-.024c-.018,0-.039,0-.061,0a3.793,3.793,0,0,0-.457-.028,3.6,3.6,0,0,0-3.5,2.466,3.22,3.22,0,0,0,1.952,4.209,3.647,3.647,0,0,0,1.216.218,3.474,3.474,0,0,0,1.237-6.748Zm-1.237,5.638a2.652,2.652,0,0,1-.908-.171,1.906,1.906,0,0,1-1.32-2.243,2.737,2.737,0,0,1,2.546-2.288,2.366,2.366,0,0,1,.4.033,2.283,2.283,0,0,1,1.479,1.276,2.477,2.477,0,0,1-.213,2.077A2.219,2.219,0,0,1,450.28,178.583Z" transform="translate(-411.009 -143.007)" fill="#717171"/>
    <path id="Path_2327" data-name="Path 2327" d="M414.917,162.157a.5.5,0,0,0-.539-.505l-1.739.108a.563.563,0,0,0-.531.6.5.5,0,0,0,.5.506l1.777-.11A.561.561,0,0,0,414.917,162.157Z" transform="translate(-408.303 -142.141)" fill="#717171"/>
    <path id="Path_2328" data-name="Path 2328" d="M420.283,162.061a.491.491,0,0,0-.535-.483l-2.05.181a.582.582,0,0,0-.525.623.479.479,0,0,0,.485.486l2.1-.184A.583.583,0,0,0,420.283,162.061Z" transform="translate(-408.697 -142.135)" fill="#717171"/>
    <path id="Path_2329" data-name="Path 2329" d="M425,162.342a.541.541,0,0,0-.535-.572c-.174,0-.348-.006-.521-.006q-.407,0-.814.015a.546.546,0,0,0-.533.581.506.506,0,0,0,.517.526h.024q.4-.015.807-.015c.172,0,.532.006.532.006A.518.518,0,0,0,425,162.342Z" transform="translate(-409.118 -142.15)" fill="#717171"/>
    <path id="Path_2330" data-name="Path 2330" d="M430.435,162.278a.508.508,0,0,0-.539-.515h0q-.8.04-1.608.041h-.126a.554.554,0,0,0,0,1.107h.125q.811,0,1.618-.041A.557.557,0,0,0,430.435,162.278Z" transform="translate(-409.509 -142.15)" fill="#717171"/>
    <path id="Path_2331" data-name="Path 2331" d="M435.669,162.47a.585.585,0,0,0-.524-.625c-.559-.053-1.127-.078-1.688-.078H433.3a.533.533,0,0,0-.537.56.526.526,0,0,0,.539.547h.16c.555,0,1.117.026,1.669.077l.06,0A.474.474,0,0,0,435.669,162.47Z" transform="translate(-409.908 -142.15)" fill="#717171"/>
    <path id="Path_2332" data-name="Path 2332" d="M440.413,162.908h.024a.507.507,0,0,0,.517-.526.548.548,0,0,0-.534-.581c-.176-.006-.35-.023-.525-.04-.223-.022-.446-.043-.67-.043a2.573,2.573,0,0,0-.606.066.5.5,0,0,0-.395.573.558.558,0,0,0,.541.514.637.637,0,0,0,.142-.018,1.665,1.665,0,0,1,.395-.042,5.142,5.142,0,0,1,.6.049C440.076,162.881,440.247,162.9,440.413,162.908Z" transform="translate(-410.332 -142.146)" fill="#717171"/>
    <path id="Path_2333" data-name="Path 2333" d="M443.563,162.76c.317.009.635.014.953.014q.732,0,1.463-.031a.552.552,0,0,0,.533-.587.51.51,0,0,0-.539-.52h0q-.729.03-1.455.03c-.315,0-.632,0-.966-.013a.511.511,0,0,0-.522.532A.543.543,0,0,0,443.563,162.76Z" transform="translate(-410.706 -142.14)" fill="#717171"/>
    <path id="Path_2334" data-name="Path 2334" d="M449.445,162.752h0c.183-.008.365-.012.547-.012.434,0,.873.022,1.308.065l.061,0a.473.473,0,0,0,.481-.481.587.587,0,0,0-.524-.628c-.44-.043-.887-.065-1.325-.065q-.277,0-.554.011a.551.551,0,0,0-.533.586A.511.511,0,0,0,449.445,162.752Z" transform="translate(-411.163 -142.14)" fill="#717171"/>
    <path id="Path_2335" data-name="Path 2335" d="M454.579,164.394a.5.5,0,0,0,.446.275.608.608,0,0,0,.511-.3.522.522,0,0,0,0-.535,6.059,6.059,0,0,0-.959-1.293.515.515,0,0,0-.373-.167.6.6,0,0,0-.526.366.522.522,0,0,0,.115.582A4.839,4.839,0,0,1,454.579,164.394Z" transform="translate(-411.531 -142.198)" fill="#717171"/>
    <path id="Path_2336" data-name="Path 2336" d="M455.235,166.494a.551.551,0,0,0-.4.16.5.5,0,0,0-.134.381l.066,1.565a.576.576,0,0,0,.973.373.5.5,0,0,0,.134-.38l-.067-1.566A.551.551,0,0,0,455.235,166.494Z" transform="translate(-411.613 -142.517)" fill="#717171"/>
    <path id="Path_2337" data-name="Path 2337" d="M416.272,190.047l-1.335-.07a.5.5,0,0,0-.506.514.557.557,0,0,0,.532.594l1.357.071a.5.5,0,0,0,.508-.514A.561.561,0,0,0,416.272,190.047Z" transform="translate(-408.483 -144.342)" fill="#717171"/>
    <path id="Path_2338" data-name="Path 2338" d="M421.687,190l-2.429-.082a.509.509,0,0,0-.518.528.548.548,0,0,0,.534.58l2.43.081a.508.508,0,0,0,.518-.528A.547.547,0,0,0,421.687,190Z" transform="translate(-408.818 -144.338)" fill="#717171"/>
    <path id="Path_2339" data-name="Path 2339" d="M427.266,189.916h-.011a9.451,9.451,0,0,1-1.116.066c-.3,0-.609-.015-.976-.047a.471.471,0,0,0-.48.48.586.586,0,0,0,.523.628q.468.046.932.045h0a9.6,9.6,0,0,0,1.136-.068.6.6,0,0,0,.52-.645A.475.475,0,0,0,427.266,189.916Z" transform="translate(-409.28 -144.338)" fill="#717171"/>
    <path id="Path_2340" data-name="Path 2340" d="M432.271,189.848l-1.506.059a.551.551,0,0,0-.534.584.505.505,0,0,0,.515.524l1.532-.06a.549.549,0,0,0,.533-.585A.511.511,0,0,0,432.271,189.848Z" transform="translate(-409.711 -144.332)" fill="#717171"/>
    <path id="Path_2341" data-name="Path 2341" d="M437.744,190.039h-1.687a.554.554,0,0,0,0,1.107l1.688,0a.554.554,0,0,0,0-1.108Z" transform="translate(-410.122 -144.347)" fill="#717171"/>
    <path id="Path_2342" data-name="Path 2342" d="M442.831,189.917a.588.588,0,0,0-.133.016,6.712,6.712,0,0,1-1.466.159,8.538,8.538,0,0,1-.857-.047.466.466,0,0,0-.473.471.6.6,0,0,0,.522.638,7.63,7.63,0,0,0,.81.043,8.042,8.042,0,0,0,1.749-.195.492.492,0,0,0,.4-.561A.574.574,0,0,0,442.831,189.917Z" transform="translate(-410.463 -144.338)" fill="#717171"/>
    <path id="Path_2343" data-name="Path 2343" d="M447.543,190h-.006c-.113.01-.224.015-.337.015-.263,0-.525-.023-.788-.046s-.536-.046-.8-.046c-.116,0-.233,0-.35.016a.584.584,0,0,0-.527.623.489.489,0,0,0,.537.483h.006c.112-.01.223-.014.335-.014.264,0,.526.022.789.044s.535.046.8.046c.118,0,.235,0,.353-.015a.582.582,0,0,0,.526-.623A.488.488,0,0,0,447.543,190Z" transform="translate(-410.838 -144.338)" fill="#717171"/>
    <path id="Path_2344" data-name="Path 2344" d="M451.754,190.839h.006l.091.089a.508.508,0,0,0,.517-.528.567.567,0,0,0-.614-.581,4.742,4.742,0,0,0-.862.1,4.726,4.726,0,0,1-.828.1v.087h-.005l-.09-.089a.509.509,0,0,0-.518.528.547.547,0,0,0,.534.579h.08a4.751,4.751,0,0,0,.863-.1,4.716,4.716,0,0,1,.827-.1Z" transform="translate(-411.205 -144.33)" fill="#717171"/>
    <path id="Path_2345" data-name="Path 2345" d="M453.842,190.51l.048,0a2.276,2.276,0,0,0,1.846-1.134.5.5,0,0,0,.012-.528.613.613,0,0,0-.516-.3.51.51,0,0,0-.45.268,1.138,1.138,0,0,1-.9.587.568.568,0,0,0-.527.612A.484.484,0,0,0,453.842,190.51Z" transform="translate(-411.508 -144.231)" fill="#717171"/>
    <path id="Path_2346" data-name="Path 2346" d="M455.514,187.044a.593.593,0,0,0,.6-.522l.141-1.262a.473.473,0,0,0-.108-.381.525.525,0,0,0-.394-.162.593.593,0,0,0-.6.524l-.141,1.26a.474.474,0,0,0,.109.381A.521.521,0,0,0,455.514,187.044Z" transform="translate(-411.637 -143.934)" fill="#717171"/>
    <path id="Path_2347" data-name="Path 2347" d="M459.082,173.007a3.119,3.119,0,0,1,.258,1.152c.02.2.04.4.077.592a.473.473,0,0,0,.482.408.63.63,0,0,0,.475-.223.555.555,0,0,0,.114-.465c-.038-.2-.065-.4-.089-.6a3.145,3.145,0,0,0-.607-1.777,2.635,2.635,0,0,0-2.092-.742c-.147,0-.292,0-.435.011a.555.555,0,0,0-.533.59.5.5,0,0,0,.511.517l.1,0c.142-.007.293-.015.446-.015A1.336,1.336,0,0,1,459.082,173.007Z" transform="translate(-411.771 -142.895)" fill="#717171"/>
    <path id="Path_2348" data-name="Path 2348" d="M459.936,176.231a.541.541,0,0,0-.552.587.528.528,0,0,0,.552.538.577.577,0,0,0,.378-.134.55.55,0,0,0,.175-.453A.529.529,0,0,0,459.936,176.231Z" transform="translate(-411.977 -143.274)" fill="#717171"/>
    <path id="Path_2349" data-name="Path 2349" d="M438.527,147.328a.534.534,0,0,0-.457-.255.611.611,0,0,0-.527.306.484.484,0,0,0,.033.514q.66,1.015,1.3,2.047a.522.522,0,0,0,.454.261.612.612,0,0,0,.522-.3.5.5,0,0,0-.022-.522Q439.189,148.344,438.527,147.328Z" transform="translate(-410.275 -141.008)" fill="#717171"/>
    <path id="Path_2350" data-name="Path 2350" d="M440.628,145.295a1.15,1.15,0,0,0-.642.208l.052.077h0l-.153,0c-.625.538-.652,1.276-.078,2.135.322.482.829,1.124,1.51,1.124a1.2,1.2,0,0,0,.565-.15,1.167,1.167,0,0,0,.614-.733,1.985,1.985,0,0,0-.318-1.5C441.964,146.108,441.389,145.295,440.628,145.295Zm-.028,1.594c-.151-.307-.151-.32-.024-.443a.172.172,0,0,1,.081-.021c.208,0,.443.389.581.618a1.364,1.364,0,0,1,.2.435.193.193,0,0,1-.107.231.313.313,0,0,1-.172-.066A2.265,2.265,0,0,1,440.6,146.889Z" transform="translate(-410.424 -140.87)" fill="#717171"/>
    <path id="Path_2351" data-name="Path 2351" d="M442.632,144.018c-.625.539-.653,1.276-.078,2.134.322.483.829,1.125,1.51,1.125a1.2,1.2,0,0,0,.565-.15,1.167,1.167,0,0,0,.614-.733,1.981,1.981,0,0,0-.319-1.5c-.211-.35-.787-1.161-1.549-1.161a1.15,1.15,0,0,0-.642.208Zm.693.864a.161.161,0,0,1,.08-.021c.209,0,.445.39.58.614a1.382,1.382,0,0,1,.2.438.193.193,0,0,1-.108.231.3.3,0,0,1-.17-.066,2.254,2.254,0,0,1-.562-.753C443.2,145.018,443.2,145,443.324,144.882Z" transform="translate(-410.637 -140.748)" fill="#717171"/>
</svg>
